<svg xmlns="http://www.w3.org/2000/svg" xmlns:xlink="http://www.w3.org/1999/xlink" width="300" zoomAndPan="magnify" viewBox="0 0 224.87999 225" height="300" preserveAspectRatio="xMidYMid meet" version="1.0"><defs><clipPath id="94af78878f"><path d="M 19.625 0.0585938 L 205.527344 0.0585938 L 205.527344 224.9375 L 19.625 224.9375 Z M 19.625 0.0585938 " clip-rule="nonzero"/></clipPath></defs><g clip-path="url(#94af78878f)"><path fill="#da3c3b" d="M 89.617188 51.03125 L 128.523438 5.472656 L 128.523438 65.300781 C 134.722656 62.738281 140.945312 60.34375 147.1875 58.117188 C 147.976562 57.835938 148.773438 57.578125 149.578125 57.347656 C 150.382812 57.113281 151.195312 56.902344 152.011719 56.71875 C 152.828125 56.535156 153.652344 56.375 154.476562 56.238281 C 155.304688 56.101562 156.136719 55.992188 156.96875 55.90625 C 157.800781 55.820312 158.636719 55.757812 159.472656 55.722656 C 160.3125 55.6875 161.148438 55.675781 161.984375 55.6875 C 162.824219 55.703125 163.660156 55.742188 164.496094 55.804688 C 165.332031 55.871094 166.164062 55.957031 166.992188 56.070312 C 167.824219 56.183594 168.648438 56.324219 169.472656 56.484375 C 170.292969 56.648438 171.109375 56.835938 171.917969 57.046875 C 172.730469 57.257812 173.535156 57.496094 174.332031 57.753906 C 175.128906 58.015625 175.914062 58.296875 176.695312 58.605469 C 177.476562 58.910156 178.246094 59.238281 179.003906 59.59375 C 179.765625 59.945312 180.511719 60.320312 181.25 60.71875 C 181.988281 61.113281 182.714844 61.535156 183.425781 61.976562 C 184.136719 62.414062 184.835938 62.875 185.523438 63.359375 C 186.207031 63.839844 186.878906 64.34375 187.53125 64.867188 C 188.1875 65.386719 188.824219 65.929688 189.449219 66.492188 C 190.070312 67.050781 190.675781 67.628906 191.265625 68.226562 C 191.851562 68.824219 192.421875 69.4375 192.972656 70.066406 C 193.527344 70.699219 194.058594 71.34375 194.570312 72.007812 C 195.082031 72.667969 195.574219 73.347656 196.046875 74.039062 C 196.519531 74.730469 196.972656 75.4375 197.402344 76.15625 C 197.832031 76.875 198.242188 77.605469 198.628906 78.347656 C 199.015625 79.089844 199.378906 79.84375 199.71875 80.609375 C 200.0625 81.375 200.378906 82.148438 200.675781 82.933594 C 200.972656 83.71875 201.242188 84.511719 201.492188 85.308594 C 201.738281 86.109375 201.960938 86.917969 202.164062 87.730469 C 202.363281 88.542969 202.539062 89.363281 202.6875 90.1875 C 202.839844 91.011719 202.964844 91.839844 203.066406 92.671875 C 203.167969 93.503906 203.246094 94.335938 203.296875 95.171875 C 203.347656 96.007812 203.375 96.847656 203.378906 97.683594 C 203.378906 99.074219 203.296875 100.457031 203.125 101.835938 C 202.953125 103.214844 202.695312 104.578125 202.347656 105.925781 C 202.003906 107.269531 201.578125 108.589844 201.066406 109.882812 C 200.554688 111.171875 199.964844 112.429688 199.292969 113.644531 C 198.625 114.863281 197.878906 116.035156 197.0625 117.15625 C 196.246094 118.28125 195.359375 119.347656 194.40625 120.359375 C 193.453125 121.371094 192.441406 122.316406 191.367188 123.199219 C 190.292969 124.082031 189.171875 124.894531 187.996094 125.636719 L 135.09375 158.980469 L 205.230469 165.40625 L 205.230469 224.847656 L 60.589844 211.59375 L 60.589844 172.847656 C 50.914062 178.902344 41.234375 185.355469 31.558594 192.203125 L 31.558594 119 L 42.144531 97.324219 L 19.625 119.011719 L 19.625 67.5 L 89.617188 0.132812 Z M 89.617188 51.03125 " fill-opacity="1" fill-rule="evenodd"/></g></svg>